<svg width="455" height="324" viewBox="0 0 455 324" fill="none" xmlns="http://www.w3.org/2000/svg">
<rect width="454.995" height="323.997" fill="#2F0052"/>
<path fill-rule="evenodd" clip-rule="evenodd" d="M120.654 158.167C121.215 158.13 121.777 158.13 122.338 158.167C122.488 158.187 122.625 158.264 122.721 158.383C122.816 158.501 122.862 158.652 122.848 158.803C122.836 158.977 122.762 159.141 122.64 159.265C122.518 159.389 122.355 159.465 122.182 159.48C121.949 159.48 121.714 159.48 121.482 159.48C121.481 159.488 121.481 159.496 121.482 159.503C121.206 159.497 120.93 159.476 120.657 159.439C120.508 159.413 120.374 159.334 120.28 159.216C120.186 159.098 120.138 158.949 120.146 158.798C120.135 158.648 120.182 158.5 120.276 158.383C120.371 158.266 120.506 158.189 120.654 158.167ZM124.741 158.167C125.301 158.13 125.862 158.13 126.422 158.167C126.572 158.188 126.709 158.265 126.804 158.383C126.899 158.502 126.945 158.652 126.933 158.803C126.941 158.954 126.893 159.103 126.799 159.221C126.705 159.339 126.571 159.419 126.422 159.445C126.137 159.481 125.851 159.503 125.564 159.508C125.288 159.502 125.012 159.482 124.739 159.447C124.59 159.421 124.456 159.341 124.362 159.223C124.268 159.105 124.22 158.957 124.228 158.806C124.215 158.652 124.263 158.499 124.362 158.38C124.461 158.261 124.603 158.185 124.756 158.17L124.741 158.167ZM128.874 158.167C129.145 158.124 129.423 158.129 129.709 158.111C129.995 158.093 130.22 158.127 130.493 158.17C130.648 158.191 130.79 158.27 130.889 158.39C130.989 158.511 131.039 158.665 131.03 158.821C131.04 158.978 130.989 159.133 130.886 159.252C130.783 159.371 130.637 159.445 130.481 159.457C129.941 159.493 129.4 159.493 128.861 159.457C128.704 159.442 128.56 159.365 128.459 159.243C128.359 159.122 128.311 158.966 128.325 158.808C128.316 158.65 128.369 158.493 128.472 158.372C128.575 158.251 128.721 158.174 128.879 158.157L128.874 158.167ZM119.617 172.625L119.98 172.428C121.65 171.442 123.533 170.874 125.469 170.77C127.122 170.793 129.045 171.222 131.201 172.428L131.49 172.584C132.222 172.979 132.978 173.329 133.753 173.631V159.49C133.543 159.49 133.362 159.49 133.183 159.49C132.703 159.468 132.417 159.21 132.417 158.808C132.417 158.407 132.7 158.144 133.183 158.119C133.372 158.119 133.561 158.119 133.75 158.119V149.932C132.905 149.932 132.085 149.958 131.267 149.932C130.756 149.912 130.343 149.96 130.149 150.507C130.118 150.563 130.078 150.613 130.031 150.655C129.512 151.289 128.857 151.798 128.115 152.145C127.372 152.491 126.562 152.667 125.742 152.658C123.673 152.688 121.965 151.932 120.787 150.152C120.742 150.094 120.684 150.046 120.619 150.011C120.554 149.977 120.483 149.956 120.409 149.95C119.495 149.935 118.578 149.95 117.661 149.95C117.575 149.953 117.49 149.962 117.405 149.976V158.149C117.541 158.149 117.661 158.149 117.771 158.149C117.919 158.152 118.066 158.165 118.212 158.188C118.362 158.218 118.496 158.298 118.593 158.416C118.69 158.534 118.742 158.682 118.742 158.834C118.742 158.986 118.69 159.134 118.593 159.252C118.496 159.37 118.362 159.45 118.212 159.48C117.957 159.526 117.673 159.526 117.408 159.549V173.654C118.16 173.362 118.893 173.025 119.605 172.645" fill="white"/>
<path fill-rule="evenodd" clip-rule="evenodd" d="M140.902 132.336C140.601 131.473 140.293 130.587 139.98 129.679C139.93 129.545 139.93 129.398 139.979 129.264C140.028 129.129 140.124 129.017 140.248 128.946C140.895 128.589 141.428 128.055 141.785 127.407C142.141 126.76 142.307 126.024 142.263 125.286C142.178 124.467 141.836 123.695 141.285 123.083C140.735 122.47 140.004 122.048 139.198 121.876C138.016 121.651 136.805 121.996 135.599 122.029C133.265 122.096 131.078 120.995 128.81 120.433C126.039 119.752 123.132 119.876 120.429 120.791C118.695 121.386 117.002 122.305 115.17 122.254C114.161 122.223 113.18 121.891 112.172 121.861C110.708 121.817 109.382 122.688 109.137 124.16C109.024 124.869 109.059 125.595 109.242 126.29C109.424 126.986 109.75 127.635 110.197 128.198C110.441 128.505 110.724 128.78 111.037 129.015C111.145 129.092 111.226 129.201 111.267 129.326C111.308 129.452 111.307 129.587 111.265 129.713C110.966 130.543 110.67 131.35 110.378 132.142C109.523 133.874 101.788 149.782 101.058 161.718C100.802 165.766 101.367 169.36 103.275 171.787C104.378 173.189 105.931 174.201 108.041 174.688C108.834 174.866 109.641 174.971 110.452 175C112.35 174.993 114.234 174.692 116.039 174.106C116.039 165.88 116.039 157.651 116.039 149.421C116.023 149.24 116.068 149.057 116.166 148.904C116.264 148.75 116.411 148.633 116.583 148.571H121.303C121.498 148.77 121.675 148.986 121.832 149.217C122.089 149.696 122.449 150.113 122.884 150.438C123.357 150.785 123.894 151.035 124.464 151.175C125.033 151.314 125.625 151.34 126.205 151.25C127.594 151.064 128.718 150.438 129.382 149.13C129.523 148.925 129.688 148.737 129.873 148.571H134.606C134.78 148.638 134.927 148.761 135.024 148.92C135.12 149.08 135.161 149.267 135.14 149.452C135.14 157.668 135.14 165.885 135.14 174.103C136.946 174.691 138.834 174.993 140.733 175C141.387 174.975 142.039 174.903 142.682 174.785C145.461 174.275 147.334 172.882 148.514 170.913C149.461 169.332 149.962 167.375 150.126 165.184C151.002 153.467 142.246 135.077 140.902 132.336ZM118.401 131.988C117.891 131.988 117.484 131.238 117.484 130.31C117.484 129.383 117.896 128.632 118.401 128.632C118.907 128.632 119.316 129.383 119.316 130.31C119.316 131.238 118.907 131.988 118.401 131.988ZM128.933 130.99C128.537 131.393 127.911 131.411 127.331 131.365C127.223 131.348 127.113 131.357 127.009 131.391C126.886 131.465 126.789 131.576 126.731 131.708C126.51 132.093 126.245 132.452 125.942 132.778C125.896 132.84 125.83 132.884 125.755 132.903C125.665 132.901 125.579 132.864 125.515 132.801C125.22 132.565 124.955 132.294 124.726 131.994C124.609 131.812 124.461 131.652 124.289 131.521C124.252 131.496 124.212 131.475 124.172 131.457C123.933 131.373 123.679 131.344 123.428 131.373C123.134 131.413 122.834 131.394 122.547 131.317C121.484 130.916 122.641 130.211 123.111 129.955C124.016 129.458 125.048 129.24 126.077 129.331C127.105 129.422 128.084 129.817 128.887 130.466C128.969 130.52 129.032 130.6 129.063 130.693C129.065 130.749 129.054 130.805 129.031 130.856C129.009 130.908 128.975 130.953 128.933 130.99ZM133.053 131.983C132.542 131.983 132.136 131.232 132.136 130.305C132.136 129.378 132.547 128.627 133.053 128.627C133.558 128.627 133.967 129.378 133.967 130.305C133.967 131.232 133.558 131.988 133.053 131.988V131.983Z" fill="white"/>
<path d="M188.48 130.4C189.696 130.4 190.72 130.656 191.552 131.168C192.384 131.648 193.2 132.608 194 134.048L209.888 162.896C210.048 163.216 210.08 163.488 209.984 163.712C209.92 163.904 209.696 164 209.312 164H203.216C202.672 164 202.304 163.792 202.112 163.376L198.704 157.184H176.144L172.832 163.376C172.608 163.792 172.24 164 171.728 164H165.488C165.072 164 164.816 163.904 164.72 163.712C164.656 163.488 164.704 163.216 164.864 162.896L180.608 134.048C181.408 132.608 182.192 131.648 182.96 131.168C183.728 130.656 184.624 130.4 185.648 130.4H188.48ZM179.168 151.616H195.68L188.048 137.552C187.92 137.328 187.744 137.216 187.52 137.216H187.232C187.008 137.216 186.832 137.328 186.704 137.552L179.168 151.616ZM241.165 130.4C244.845 130.4 247.485 131.232 249.085 132.896C250.685 134.56 251.485 137.024 251.485 140.288V143.024C251.485 145.776 250.925 147.952 249.805 149.552C248.685 151.152 246.861 152.176 244.333 152.624L252.541 162.8C252.701 162.96 252.749 163.2 252.685 163.52C252.621 163.84 252.365 164 251.917 164H245.725C245.309 164 245.021 163.952 244.861 163.856C244.701 163.76 244.541 163.6 244.381 163.376L236.797 153.392H221.293V162.944C221.293 163.648 220.941 164 220.237 164H215.053C214.317 164 213.949 163.648 213.949 162.944V131.84C213.949 130.88 214.429 130.4 215.389 130.4H241.165ZM221.293 147.536H239.677C241.309 147.536 242.461 147.184 243.133 146.48C243.805 145.776 244.141 144.704 244.141 143.264V141.248C244.141 139.808 243.805 138.736 243.133 138.032C242.461 137.328 241.309 136.976 239.677 136.976H221.917C221.501 136.976 221.293 137.168 221.293 137.552V147.536ZM293.368 130.4C294.104 130.4 294.472 130.752 294.472 131.456V136.16C294.472 136.896 294.104 137.264 293.368 137.264H278.296V162.944C278.296 163.648 277.944 164 277.24 164H272.008C271.304 164 270.952 163.648 270.952 162.944V137.264H255.88C255.144 137.264 254.776 136.896 254.776 136.16V131.456C254.776 130.752 255.144 130.4 255.88 130.4H293.368ZM305.034 130.4C305.738 130.4 306.09 130.752 306.09 131.456V162.944C306.09 163.648 305.738 164 305.034 164H299.85C299.114 164 298.746 163.648 298.746 162.944V131.456C298.746 130.752 299.114 130.4 299.85 130.4H305.034ZM349.873 130.4C350.321 130.4 350.561 130.56 350.593 130.88C350.657 131.168 350.577 131.424 350.353 131.648L335.617 146.576L351.025 162.752C351.249 162.976 351.329 163.248 351.265 163.568C351.233 163.856 350.993 164 350.545 164H343.969C343.585 164 343.281 163.952 343.057 163.856C342.833 163.76 342.625 163.584 342.433 163.328L330.577 150.896L318.673 163.328C318.449 163.584 318.225 163.76 318.001 163.856C317.809 163.952 317.505 164 317.089 164H310.849C310.433 164 310.193 163.856 310.129 163.568C310.097 163.248 310.193 162.976 310.417 162.752L326.209 146.336L311.953 131.648C311.761 131.424 311.681 131.168 311.713 130.88C311.745 130.56 311.985 130.4 312.433 130.4H319.009C319.393 130.4 319.697 130.464 319.921 130.592C320.145 130.688 320.353 130.848 320.545 131.072L331.009 142.208L342.097 131.072C342.289 130.848 342.497 130.688 342.721 130.592C342.945 130.464 343.249 130.4 343.633 130.4H349.873Z" fill="#F21B6D"/>
</svg>
