<svg width="33" height="26" viewBox="0 0 33 26" fill="none" xmlns="http://www.w3.org/2000/svg">
<g clip-path="url(#clip0_68_157)">
<path d="M0 4.0094H7.71387V6.16825H0V4.0094ZM0 0H7.71387V2.15886H0V0ZM13.8399 7.98789H0V10.1467H13.3212C14.7797 10.1467 18.1828 10.1775 19.447 12.1205V10.9178C18.8311 9.00557 17.0163 7.98789 13.8399 7.98789ZM13.8721 11.9972H0V14.156H13.3212C16.5623 14.156 18.6043 14.2794 19.447 14.7112V13.7551C18.7987 12.2439 16.076 11.9972 13.8721 11.9972ZM13.8399 22.1747H0V20.0158H13.3212C14.7797 20.0158 18.1828 19.985 19.447 18.042V19.2448C18.8311 21.157 17.0163 22.1747 13.8399 22.1747ZM13.8721 18.1654H0V16.0066H13.3212C16.5623 16.0066 18.6043 15.8832 19.447 15.4514V16.4075C18.7987 17.9187 16.076 18.1654 13.8721 18.1654ZM22.8177 25.9065H32.995V24.5803H23.1094C22.2343 24.5803 20.1601 24.5495 19.4146 23.4083V24.1486C19.7711 25.2897 20.8731 25.9065 22.8177 25.9065ZM22.7854 23.47H32.9627V22.1439H23.1094C21.1323 22.1439 19.9006 22.0822 19.4145 21.8047V22.3907C19.8033 23.3159 21.4564 23.47 22.7854 23.47Z" fill="#00D1FF" fill-opacity="0.933333"/>
</g>
<defs>
<clipPath id="clip0_68_157">
<rect width="33" height="26" fill="white"/>
</clipPath>
</defs>
</svg>
