<svg width="30" height="31" viewBox="0 0 30 31" fill="none" xmlns="http://www.w3.org/2000/svg">
<path d="M15.0021 3.22949C14.4271 3.22949 13.8396 3.28116 13.2521 3.41033C9.8021 4.09491 7.0521 6.97533 6.4021 10.5403C5.8021 13.9116 7.0021 17.0116 9.1771 19.0137C9.7146 19.5045 10.0021 20.1891 10.0021 20.9124V23.8962C10.0021 25.317 11.1271 26.4795 12.5021 26.4795H12.8521C13.2896 27.2545 14.0771 27.7712 15.0021 27.7712C15.9271 27.7712 16.7271 27.2545 17.1521 26.4795H17.5021C18.8771 26.4795 20.0021 25.317 20.0021 23.8962V20.9124C20.0021 20.202 20.2771 19.5045 20.8021 19.0266C22.6146 17.3732 23.7521 14.9578 23.7521 12.2712C23.7521 7.27241 19.8396 3.22949 15.0021 3.22949ZM17.5021 21.3128H12.5021V20.0212H17.5021V21.3128ZM12.5021 23.8962V22.6045H17.5021V23.8962H12.5021ZM19.1396 17.102C19.0271 17.2053 18.9396 17.3345 18.8396 17.4378H11.1521C11.0521 17.3216 10.9646 17.1924 10.8521 17.0891C9.2021 15.5649 8.4646 13.2916 8.8646 11.0182C9.3146 8.51241 11.3146 6.43283 13.7271 5.94199C14.1521 5.85158 14.5771 5.81283 15.0021 5.81283C18.4521 5.81283 21.2521 8.70616 21.2521 12.2712C21.2521 14.1182 20.4896 15.8749 19.1396 17.102Z" fill="#F6F5F5"/>
<path d="M15.6271 13.5628H14.3771V17.4378H15.6271V13.5628Z" fill="#F6F5F5"/>
<path d="M12.9765 10.8164L12.0926 11.7297L14.7442 14.4697L15.6281 13.5564L12.9765 10.8164Z" fill="#F6F5F5"/>
<path d="M14.3784 13.5695L15.2622 14.4829L17.9139 11.7428L17.03 10.8295L14.3784 13.5695Z" fill="#F6F5F5"/>
</svg>
