<svg width="27" height="26" viewBox="0 0 27 26" fill="none" xmlns="http://www.w3.org/2000/svg">
<rect x="0.989258" width="25.2778" height="25.2778" fill="#1E1E1E"/>
<path d="M8.21191 7.3203C8.21191 8.01675 8.48858 8.68467 8.98104 9.17713C9.4735 9.6696 10.1414 9.94626 10.8379 9.94626H13.4638V4.69434H10.8379C10.1414 4.69434 9.4735 4.971 8.98104 5.46346C8.48858 5.95593 8.21191 6.62385 8.21191 7.3203V7.3203Z" fill="#F24E1E"/>
<path d="M13.4639 4.69434V9.94626H16.0898C16.7863 9.94626 17.4542 9.6696 17.9467 9.17713C18.4391 8.68467 18.7158 8.01675 18.7158 7.3203C18.7158 6.62385 18.4391 5.95593 17.9467 5.46346C17.4542 4.971 16.7863 4.69434 16.0898 4.69434H13.4639Z" fill="#FF7262"/>
<path d="M8.21191 12.5723C8.21191 13.2687 8.48858 13.9366 8.98104 14.4291C9.4735 14.9216 10.1414 15.1982 10.8379 15.1982H13.4638V9.94629H10.8379C10.1414 9.94629 9.4735 10.223 8.98104 10.7154C8.48858 11.2079 8.21191 11.8758 8.21191 12.5723V12.5723Z" fill="#A259FF"/>
<path d="M13.4639 12.5723C13.4639 11.8758 13.7405 11.2079 14.233 10.7154C14.7255 10.223 15.3934 9.94629 16.0898 9.94629C16.7863 9.94629 17.4542 10.223 17.9467 10.7154C18.4391 11.2079 18.7158 11.8758 18.7158 12.5723C18.7158 13.2687 18.4391 13.9366 17.9467 14.4291C17.4542 14.9216 16.7863 15.1982 16.0898 15.1982C15.3934 15.1982 14.7255 14.9216 14.233 14.4291C13.7405 13.9366 13.4639 13.2687 13.4639 12.5723Z" fill="#1ABCFE"/>
<path d="M8.21191 17.8242C8.21191 17.1278 8.48858 16.4598 8.98104 15.9674C9.4735 15.4749 10.1414 15.1982 10.8379 15.1982H13.4638V17.8242C13.4638 18.5207 13.1872 19.1886 12.6947 19.681C12.2022 20.1735 11.5343 20.4502 10.8379 20.4502C10.1414 20.4502 9.4735 20.1735 8.98104 19.681C8.48858 19.1886 8.21191 18.5207 8.21191 17.8242V17.8242Z" fill="#0ACF83"/>
</svg>
