<svg width="27" height="26" viewBox="0 0 27 26" fill="none" xmlns="http://www.w3.org/2000/svg">
<g clip-path="url(#clip0_68_161)">
<path d="M13.2057 0C6.05894 0 0.263672 5.79425 0.263672 12.942C0.263672 18.6603 3.97195 23.5115 9.11425 25.2228C9.76103 25.3426 9.99854 24.942 9.99854 24.6002C9.99854 24.2916 9.98646 23.272 9.98098 22.1906C6.3804 22.9735 5.62065 20.6636 5.62065 20.6636C5.03194 19.1677 4.18369 18.77 4.18369 18.77C3.00951 17.9667 4.2722 17.9831 4.2722 17.9831C5.57183 18.0745 6.25616 19.3169 6.25616 19.3169C7.41044 21.2955 9.28376 20.7234 10.0223 20.3928C10.1384 19.5562 10.4739 18.9854 10.844 18.6622C7.96941 18.3348 4.94749 17.2251 4.94749 12.2661C4.94749 10.8532 5.45307 9.69864 6.28103 8.79232C6.14664 8.4663 5.70368 7.15002 6.40638 5.36733C6.40638 5.36733 7.49316 5.01949 9.96637 6.69397C10.9986 6.40712 12.1058 6.2634 13.2057 6.25852C14.3056 6.2634 15.4136 6.40712 16.4479 6.69397C18.9181 5.01949 20.0034 5.36733 20.0034 5.36733C20.7078 7.15002 20.2647 8.4663 20.1303 8.79232C20.9601 9.69864 21.4622 10.8531 21.4622 12.2661C21.4622 17.2369 18.4346 18.3315 15.5527 18.6518C16.0169 19.0535 16.4305 19.8411 16.4305 21.0485C16.4305 22.7801 16.4155 24.1739 16.4155 24.6002C16.4155 24.9446 16.6485 25.3481 17.3046 25.2211C22.444 23.5078 26.1476 18.6583 26.1476 12.942C26.1476 5.79425 20.3532 0 13.2057 0Z" fill="#EFEFEF"/>
<path d="M5.1108 18.4363C5.08237 18.5005 4.98108 18.5198 4.88901 18.4757C4.79512 18.4335 4.74234 18.3458 4.77279 18.2813C4.80071 18.2151 4.90201 18.1966 4.99569 18.2411C5.08978 18.2832 5.14338 18.3717 5.1108 18.4363ZM5.74742 19.0043C5.6857 19.0615 5.56502 19.0349 5.48311 18.9445C5.39845 18.8542 5.38262 18.7337 5.44525 18.6755C5.50889 18.6184 5.62592 18.645 5.71077 18.7354C5.79543 18.8266 5.81187 18.9465 5.74732 19.0044M6.18418 19.731C6.10481 19.7861 5.97509 19.7345 5.895 19.6194C5.81573 19.5044 5.81573 19.3663 5.89673 19.311C5.97712 19.2557 6.10481 19.3054 6.18601 19.4196C6.26518 19.5366 6.26518 19.6747 6.18408 19.7311M6.92271 20.5728C6.85176 20.6509 6.70073 20.63 6.59009 20.5232C6.47701 20.4189 6.44545 20.2708 6.5166 20.1926C6.58836 20.1142 6.74031 20.1362 6.85176 20.2421C6.96412 20.3462 6.99833 20.4954 6.92271 20.5728ZM7.87724 20.857C7.84608 20.9583 7.70052 21.0044 7.55395 20.9613C7.40759 20.917 7.31177 20.7982 7.34131 20.6958C7.37176 20.5938 7.51792 20.5458 7.66561 20.5919C7.81177 20.636 7.90769 20.7539 7.87724 20.857ZM8.96372 20.9775C8.96737 21.0842 8.84303 21.1728 8.68915 21.1747C8.53436 21.178 8.40921 21.0917 8.40759 20.9867C8.40759 20.8789 8.52908 20.7912 8.68377 20.7887C8.83765 20.7856 8.96372 20.8714 8.96372 20.9775ZM10.0309 20.9366C10.0494 21.0407 9.9424 21.1477 9.78964 21.1761C9.63942 21.2035 9.50036 21.1393 9.48117 21.036C9.4625 20.9293 9.57151 20.8224 9.72143 20.7947C9.8745 20.7681 10.0114 20.8307 10.0309 20.9366Z" fill="#EFEFEF"/>
</g>
<defs>
<clipPath id="clip0_68_161">
<rect width="25.9846" height="25.2778" fill="white" transform="translate(0.263672)"/>
</clipPath>
</defs>
</svg>
