<svg width="25" height="26" viewBox="0 0 25 26" fill="none" xmlns="http://www.w3.org/2000/svg">
<path d="M23.7786 12.0758L13.1969 1.19247C13.052 1.04337 12.8799 0.925095 12.6906 0.844399C12.5012 0.763702 12.2982 0.722168 12.0933 0.722168C11.8883 0.722168 11.6853 0.763702 11.4959 0.844399C11.3066 0.925095 11.1345 1.04337 10.9896 1.19247L8.79234 3.45276L11.5797 6.31954C11.9073 6.20493 12.2596 6.18699 12.5967 6.26775C12.9337 6.34852 13.2421 6.52476 13.4867 6.77651C13.7327 7.02984 13.9044 7.34924 13.9823 7.6982C14.0602 8.04716 14.0411 8.41162 13.9271 8.74993L16.613 11.513C17.263 11.2828 18.013 11.4319 18.5319 11.9665C18.7044 12.1438 18.8412 12.3544 18.9346 12.5862C19.028 12.8179 19.076 13.0663 19.076 13.3172C19.076 13.568 19.028 13.8165 18.9346 14.0482C18.8412 14.28 18.7044 14.4905 18.5319 14.6679C18.2283 14.9803 17.8289 15.175 17.4016 15.2186C16.9742 15.2623 16.5454 15.1523 16.1881 14.9073C15.8307 14.6623 15.5669 14.2976 15.4416 13.8751C15.3163 13.4526 15.3373 12.9985 15.5009 12.5901L12.9958 10.0134L12.9956 16.7943C13.1772 16.8867 13.343 17.0087 13.4867 17.1556C13.6592 17.333 13.7961 17.5436 13.8894 17.7754C13.9828 18.0072 14.0308 18.2556 14.0308 18.5065C14.0308 18.7574 13.9828 19.0058 13.8894 19.2376C13.7961 19.4694 13.6592 19.68 13.4867 19.8574C12.761 20.6038 11.5849 20.6038 10.8604 19.8574C10.6439 19.6349 10.4843 19.3609 10.3956 19.0596C10.307 18.7584 10.292 18.4393 10.3522 18.1307C10.4123 17.822 10.5457 17.5335 10.7404 17.2907C10.9351 17.0479 11.1851 16.8583 11.4682 16.7388V9.89481C11.2405 9.79915 11.0338 9.65736 10.8604 9.47785C10.3108 8.91325 10.1786 8.08378 10.4603 7.38955L7.7127 4.56302L0.457301 12.0252C0.31232 12.1744 0.197313 12.3514 0.118849 12.5462C0.040385 12.7411 0 12.9499 0 13.1608C0 13.3717 0.040385 13.5805 0.118849 13.7753C0.197313 13.9701 0.31232 14.1472 0.457301 14.2963L11.039 25.1798C11.3317 25.4808 11.7287 25.6499 12.1426 25.6499C12.5565 25.6499 12.9535 25.4808 13.2463 25.1798L23.7786 14.3471C24.0713 14.0458 24.2357 13.6373 24.2357 13.2114C24.2357 12.7855 24.0713 12.377 23.7786 12.0758Z" fill="#DE4C36"/>
</svg>
