<svg width="456" height="324" viewBox="0 0 456 324" fill="none" xmlns="http://www.w3.org/2000/svg">
<rect x="0.00292969" width="455" height="324" fill="#040001"/>
<path fill-rule="evenodd" clip-rule="evenodd" d="M116.233 170.966C116.233 184.298 124.855 192.91 136.273 192.91C147.575 192.91 156.313 184.062 156.313 170.966V120H168.546V202.584H156.429V194.916C150.953 200.697 143.38 204 134.875 204C117.399 204 104 191.14 104 171.674V120H116.233V170.966ZM180.547 202.584V120H192.314V150.084C195.059 147.238 198.339 144.978 201.961 143.438C205.583 141.898 209.474 141.109 213.402 141.118C230.879 141.118 244.627 155.157 244.627 172.618C244.627 189.961 230.879 204 213.402 204C205.13 204 197.557 200.579 192.198 195.034V202.584H180.547ZM192.081 172.618C192.081 184.18 201.169 193.5 212.587 193.5C223.772 193.5 232.976 184.18 232.976 172.618C232.976 160.938 223.772 151.736 212.587 151.736C201.285 151.736 192.081 160.938 192.081 172.618ZM251.617 172.5C251.617 155.511 264.783 141.236 282.143 141.236C299.27 141.236 311.853 154.567 311.853 172.5V176.393H263.501C265.133 186.185 273.172 193.5 283.192 193.5C290.066 193.5 295.891 190.669 300.318 184.652L308.824 191.022C302.882 199.045 294.027 203.882 283.192 203.882C265.366 203.882 251.617 190.433 251.617 172.5ZM281.91 151.618C273.172 151.618 265.832 157.753 263.734 166.955H299.969C297.988 157.753 290.648 151.618 281.91 151.618ZM351 153.034H346.107C338.417 153.034 332.825 159.051 332.825 168.371V202.584H321.057V142.416H332.708V149.848C335.621 145.011 340.398 141.944 346.922 141.944H351V153.034Z" fill="#FFFEFE"/>
</svg>
